<svg version="1.1" xmlns="http://www.w3.org/2000/svg" viewBox="0 0 178.71560668945312 94.31192016601562" width="536.1468200683594" height="282.9357604980469"><!-- svg-source:excalidraw --><metadata></metadata><defs><style class="style-fonts">
      </style></defs><g stroke-opacity="0.8" fill-opacity="0.8" stroke-linecap="round" transform="translate(10 10) rotate(0 79.35780334472656 37.15596008300781)"><path d="M89.78 -1.35 C101.8 -1.15, 114.56 2.99, 124.79 6.53 C135.02 10.07, 145.65 14.75, 151.16 19.89 C156.67 25.03, 158.4 31.74, 157.85 37.37 C157.29 43.01, 153.39 48.33, 147.84 53.7 C142.29 59.07, 134.65 65.92, 124.54 69.61 C114.44 73.29, 99.37 75.62, 87.23 75.83 C75.08 76.04, 62.84 73.44, 51.67 70.86 C40.5 68.28, 28.53 64.48, 20.21 60.34 C11.89 56.21, 4.78 51.37, 1.74 46.03 C-1.31 40.69, -1.16 33.58, 1.94 28.31 C5.05 23.04, 12.3 19.04, 20.37 14.43 C28.43 9.82, 31.7 1.52, 50.32 0.66 C68.93 -0.2, 115.01 4.66, 132.08 9.25 C149.15 13.84, 154.09 27.95, 152.75 28.2 M74.71 -0.96 C86.55 -1.66, 102.41 1.03, 113.42 3.38 C124.44 5.73, 133.05 8.19, 140.8 13.16 C148.55 18.13, 157.11 27.4, 159.92 33.17 C162.73 38.95, 161.96 43.2, 157.66 47.79 C153.36 52.38, 143.04 56.7, 134.12 60.7 C125.2 64.69, 115.69 69.42, 104.13 71.75 C92.58 74.09, 76.92 75.07, 64.8 74.69 C52.69 74.32, 40.55 73.06, 31.43 69.52 C22.31 65.98, 15.76 59.62, 10.09 53.45 C4.42 47.29, -3.23 38.48, -2.58 32.51 C-1.93 26.53, 6.97 22.09, 13.97 17.61 C20.97 13.13, 29.79 8.67, 39.43 5.63 C49.07 2.59, 65.85 0.57, 71.79 -0.62 C77.73 -1.81, 74.47 -2.21, 75.06 -1.52" stroke="#f783ac" stroke-width="2" fill="none"></path></g></svg>